<svg xmlns="http://www.w3.org/2000/svg" data-name="Layer 1" viewBox="0 0 512 512"><path fill="#674cfb" d="M341.56667,410.1237s12.12479,11.16849,11.49112,15.28733-2.48668,13.94072.024,13.94072H440.815a1.99718,1.99718,0,0,0,2.00084-1.98644c.01995-3.95542-.82148-12.64594-8.3316-15.092h11.65318a1.99879,1.99879,0,0,0,1.77067-2.93c-2.80541-5.2939-9.22355-15.95216-15.64169-16.42758,0,0-12.03818-3.38229-20.67818-9.50229s-31.94914-27.38022-31.94914-27.38022l-10.1059,8.84266,3.18356,3.32676Z"/><path fill="#fed44a" d="M202.007,351.58861C271.15608,290.28114,288.7404,314.519,288.7404,314.519c21.63479-18.60592,83.45253,35.669,94.34986,45.53817a1.99526,1.99526,0,0,1-.03061,2.98313L370.31478,374.192l2.55336,2.57892a2,2,0,0,1-.02459,2.83871l-36.20321,35.32021a2,2,0,0,1-2.71643.07116l-45.996-40.3965a11.7138,11.7138,0,0,0-14.80481-.54382c-17.60854,13.33813-61.9047,45.11472-87.74992,47.917-32.79237,3.55559-42.35211-26.1428-42.35211-26.1428"/><path d="M67.98633 416.36621a.49982.49982 0 01-.13574-.981l16.3955-4.6333a.49975.49975 0 11.27149.96192l-16.39551 4.6333A.48221.48221 0 0167.98633 416.36621zM94.52051 416.72266a.5.5 0 01-.14453-.97852l8.87207-2.67334a.49987.49987 0 01.28906.957L94.665 416.70117A.49863.49863 0 0194.52051 416.72266z"/><polygon fill="#674cfb" points="331.772 131.923 348.682 118.158 345.307 113.664 331.772 131.923"/><path d="M205.11286 331.33761s-8.23233 24.62518-39.43233 47.42518L202.007 351.58861zM186.47414 285.24128c-13.02734 2.894-18.97464-13.3106-18.97464-13.3106a28.39387 28.39387 0 0013.27764 5.86561c.17931 3.96254 1.31685 5.52184 2.41678 6.17651.00007 0 .27438.16338 3.28022 1.26848zM232.68555 249.67578a.49983.49983 0 01-.44141-.26465l-16.7832-31.4624a2.5001 2.5001 0 011.043-3.38916l16.89062-8.88232a2.50021 2.50021 0 013.43457 1.16748l12.16016 26.41845a.49989.49989 0 11-.90821.418L235.9209 207.2627a1.50106 1.50106 0 00-2.06152-.70069l-16.89063 8.88233a1.5008 1.5008 0 00-.625 2.03369l16.7832 31.4624a.50048.50048 0 01-.4414.73535z"/><path d="M250.34766 235.13574a2.49008 2.49008 0 01-2.26661-1.4541L237.66113 211.044a2.494 2.494 0 01.42481-2.73047l42.54883-45.3418a.49984.49984 0 11.72851.68457l-42.54394 45.33643a1.49507 1.49507 0 00-.25 1.6333l10.41992 22.6372a1.488 1.488 0 001.5459.86133l58.874-7.45752a.51313.51313 0 01.55859.43311.50053.50053 0 01-.43359.55908l-58.875 7.45752A2.59 2.59 0 01250.34766 235.13574zM218.21413 225.83647l-5.6446 2.26475a2 2 0 00-1.05655 2.72529l5.84418 12.11215a2 2 0 002.60489.96232l6.05283-2.65589a2 2 0 00.961-2.77276l-6.2524-11.721A2 2 0 00218.21413 225.83647z"/><ellipse cx="295.235" cy="195.238" fill="#fd6f41" rx="10.62" ry="34.955" transform="rotate(-24.034 295.235 195.238)"/><path d="M288.48554 191.4584a9.21568 9.21568 0 00-5.524 1.83826c.7732 2.05487 1.63074 4.15033 2.57471 6.26709a109.87457 109.87457 0 005.16321 10.15741 9.265 9.265 0 00-2.21387-18.26276zM118.81934 354.53418a.49869.49869 0 01-.40625-.2085c-8.68262-12.09326-12.22266-25.07666-9.97071-36.55859 2.05762-10.49023 8.874-19.63135 19.71-26.43555 11.54395-7.249 11.53223-14.75927 11.51954-23.45605-.01465-9.55518-.03126-20.38526 14.46289-33.6958 9.26074-8.50489 17.85058-11.99951 25.53418-10.39063 10.43847 2.189 15.27441 12.93164 15.47656 13.38916v.001c6.14941 14.03418 7.11426 26.0415 2.71679 33.81006a14.27047 14.27047 0 01-10.75781 7.38476c-10.35547 1.3252-18.624-5.00293-19.791-5.94922-7.14356-.25341-11.0752-3.84375-11.0752-10.123a1.75149 1.75149 0 01.582-1.41748c.89942-.75244 2.53223-.458 4.60157-.085a30.24147 30.24147 0 003.001.4375.88954.88954 0 00.65723-.26465c2.22754-1.92676 3.36816-11.98389 3.62012-15.69629a.50074.50074 0 01.44433-.46338 66.61834 66.61834 0 0024.89356-7.62939c-.98243-1.96241-5.75-10.56934-14.58106-12.417-7.35156-1.53759-15.63965 1.8794-24.64648 10.14991-14.16895 13.01269-14.15332 23.60937-14.13867 32.958.01367 8.99366.02539 16.76123-11.98829 24.3042-10.59668 6.65381-17.25586 15.56885-19.25976 25.78125-2.19922 11.2085 1.28222 23.91651 9.80176 35.78321a.4997.4997 0 01-.40625.7915zm39.6455-93.11523a1.61987 1.61987 0 00-1.00293.23242.75894.75894 0 00-.22363.65039c0 5.78564 3.55371 8.94238 10.27539 9.1289a.50061.50061 0 01.31348.12207c.083.07227 8.46777 7.19776 19.15039 5.82911a13.2903 13.2903 0 0010.01465-6.88526c2.43164-4.2959 5.30566-14.19238-2.53809-32.39941a67.75751 67.75751 0 01-24.78711 7.66308c-.18359 2.36036-1.19629 13.60108-3.93261 15.96778a1.87058 1.87058 0 01-1.3877.50586 30.86949 30.86949 0 01-3.10254-.45069A17.77939 17.77939 0 00158.46484 261.419z"/><path d="M182.33984,312.937c-.13769,0-.27636-.00293-.418-.00879-13.54981-.57666-18.123-23.71435-18.31153-24.69922a.50059.50059,0,0,1,.36133-.57666c2.6084-.7041,3.24219-10.00537,3.02832-15.70312a.50025.50025,0,0,1,.48145-.51807.48515.48515,0,0,1,.51855.481c.05664,1.53174.43066,14.56055-3.32324,16.53076.67285,3.09619,5.46094,22.98291,17.28808,23.48633a5.48859,5.48859,0,0,0,4.91895-2.07178c4.42383-5.77734-.02539-21.58154-.78125-24.1206a5.38609,5.38609,0,0,1-3.16113-1.31592c-1.56153-1.34863-2.457-3.56592-2.66309-6.59082a.50016.50016,0,1,1,.998-.06738c.20508,3.01513,1.16406,5.17626,2.77539,6.249a4.24815,4.24815,0,0,0,2.38672.731.51472.51472,0,0,1,.51269.34765c.24121.76074,5.834,18.70459.72656,25.37451A6.3562,6.3562,0,0,1,182.33984,312.937Z"/><path d="M156.05664,330.90283c-6.51758,0-18.70508-6.49707-20.34766-7.38965a.49892.49892,0,0,1-.249-.5498c.06836-.30225,7.084-30.25977,28.52734-35.31494a.5.5,0,0,1,.22852.97363c-19.56055,4.61133-26.82129,30.77344-27.69043,34.19531,5.50781,2.94873,19.2666,9.3501,22.10742,6.3291a19.0045,19.0045,0,0,0,4.38281-9.46191.5.5,0,1,1,.99219.124,19.724,19.724,0,0,1-4.64648,10.02344A4.4102,4.4102,0,0,1,156.05664,330.90283Z"/><path d="M101.62988,421.8501a13.48144,13.48144,0,0,1-3.77343-.39746c-1.999-.625-3.28125-1.57227-3.81055-2.81641a3.28071,3.28071,0,0,1-.23047-1.71973c-4.94727,1.24073-25.41992,6.18506-28.13965,3.80127a2.53852,2.53852,0,0,1-1.05957-2.353,3.74766,3.74766,0,0,1,1.82227-2.25391c-1.28223-.29785-2.94336-.91113-3.23438-2.11523-.251-1.03711.52149-2.15577,2.3584-3.4126a2.67715,2.67715,0,0,1,.02148-2.09229c.59571-1.32519,2.30957-2.24463,5.09864-2.73681a1.717,1.717,0,0,1-.09082-1.0708c.36914-1.54688,2.78418-2.79,7.38574-3.8003,10.27051-2.25439,17.28808-4.93017,18.31348-6.98291,1.17968-2.3584,37.666-68.26416,39.21875-71.06836a.50006.50006,0,0,1,.875.48438c-.37989.68652-38.0293,68.69189-39.19922,71.03125-1.69336,3.38916-13.84668,6.38281-18.99317,7.51221-5.61914,1.23339-6.50683,2.54785-6.62793,3.05566a.90214.90214,0,0,0,.30176.8208.49971.49971,0,0,1-.24707.88281c-3.61133.5-4.7793,1.51709-5.12305,2.28223a1.78688,1.78688,0,0,0,.124,1.5791.50079.50079,0,0,1-.14453.69727c-1.60743,1.03759-2.44532,1.979-2.29981,2.583.22949.94971,2.69922,1.49366,3.85938,1.6084a.50005.50005,0,0,1,.13574.9624c-.6543.26026-2.39063,1.16407-2.56934,2.20557a1.62793,1.62793,0,0,0,.73438,1.4292c1.89746,1.66895,18.21972-1.70947,28.06054-4.22754a.50031.50031,0,0,1,.57129.708,2.311,2.311,0,0,0,.00489,1.81348c.41406.95459,1.48437,1.708,3.18261,2.23877,2.05274.6416,7.11817.4038,14.64649-.688a17.39034,17.39034,0,0,0,13.52832-10.34815c19.86914-45.68066,31.34375-75.25439,30.69336-79.10986a.5001.5001,0,0,1,.98633-.166c.94628,5.61182-18.86719,52.32764-30.76172,79.67432a18.38413,18.38413,0,0,1-14.30274,10.939A84.15257,84.15257,0,0,1,101.62988,421.8501Z"/><path d="M66.20312 411.25732a.5.5 0 01-.09765-.99023l11.76172-2.376a.50006.50006 0 11.19726.98047l-11.76172 2.376A.49243.49243 0 0166.20312 411.25732zM71.55078 406.62354a.50011.50011 0 01-.12988-.98292l9.2666-2.49462a.50007.50007 0 01.25977.96582l-9.26661 2.49463A.49479.49479 0 0171.55078 406.62354zM139.65332 398.23682a1.56907 1.56907 0 01-.9834-.35205c-2.34082-1.83692-2.041-11.3794-2-12.46192a.46622.46622 0 01.51953-.48.50019.50019 0 01.48047.51856c-.15039 3.89062.15625 10.49023 1.61719 11.63671a.57032.57032 0 00.56152.10889c2.64453-.75537 45.21387-33.21728 61.66016-45.86621.0459-3.707 1.1084-9.34326 2.13672-14.79785.6709-3.55371 1.30371-6.91016 1.667-9.73145.92285-7.14453-4.65625-19.8042-4.71289-19.93115a.49964.49964 0 01.32519-.68555c9.166-2.5 11.3877-16.22119 11.709-18.63818-12.65723-5.30859-25.89649-1.86865-26.03027-1.83252a.49982.49982 0 11-.25782-.96582c.13672-.0376 13.95118-3.62793 27.02832 2.02686a.49855.49855 0 01.29883.50879c-.06738.67919-1.75976 16.394-11.93359 19.70117 1.07031 2.51709 5.4248 13.28418 4.56543 19.94433-.36817 2.8501-1.00293 6.22022-1.67578 9.78858-1.043 5.53271-2.12207 11.25342-2.12207 14.86035a.50052.50052 0 01-.19532.39648c-2.39941 1.84571-58.80761 45.21826-62.1875 46.18409A1.71678 1.71678 0 01139.65332 398.23682zM307.24628 311.46174c-7.40711-1.538-13.88084-.92017-18.50586 3.05734l44.67345 29.46537z"/><path d="M220.59375,293.09668c-2.03027,0-5.77539-1.16162-8.16895-1.98242a.50015.50015,0,0,1,.32422-.94629c3.56446,1.22363,7.791,2.27832,8.40332,1.88672,1.04-1.07422,12.917-21.91211,12.04688-23.82813-12.54688-17.18017-13.26367-21.33594-12.48535-23.03515a2.55177,2.55177,0,0,1,2.34375-1.27051c3.0205-.24219,10.06738,5.1875,10.86133,5.80762a.50289.50289,0,0,1,.1914.43164c-.00293.0332-.22949,3.31005,1.30762,4.62011a2.74011,2.74011,0,0,0,2.55176.40674.49931.49931,0,0,1,.6123.42676c.00391.03076.39453,3.10156,2.19336,4.33935a3.1639,3.1639,0,0,0,2.69531.37745.49285.49285,0,0,1,.416.08154.49956.49956,0,0,1,.2041.37158c.00195.03809.2666,3.80225,2.374,5.47461a3.93981,3.93981,0,0,0,3.22266.71777.50023.50023,0,0,1,.5752.57422c-.00489.0293-.44922,2.94336,1.69921,4.52783a4.75828,4.75828,0,0,0,5.98243-.54443l3.60254-3.38183a.49986.49986,0,0,1,.68359.72949l-3.60254,3.38183a5.45428,5.45428,0,0,1-9.40723-4.22558,4.75147,4.75147,0,0,1-3.38086-.998c-1.9414-1.54346-2.52343-4.40967-2.6875-5.62744a3.99113,3.99113,0,0,1-2.94726-.63721c-1.68457-1.16211-2.31934-3.4707-2.52735-4.51367a3.499,3.499,0,0,1-2.91015-.72168c-1.64258-1.40234-1.69531-4.27637-1.668-5.18115-2.22949-1.71533-7.81641-5.624-9.96-5.44043-.88672.07226-1.32617.272-1.5166.68945-.94727,2.06885,3.22265,9.48487,12.3916,22.042,1.86816,2.55811-11.99219,24.94776-12.16895,25.124A1.81359,1.81359,0,0,1,220.59375,293.09668Z"/><path d="M233.49316,317.56055c-8.95214.00146-31.60156-9.96729-32.63867-10.42627a.49975.49975,0,0,1,.4043-.91407c.27148.12012,27.23047,11.99952,33.88672,10.16163,4.14258-1.14307,12.59863-11.75586,25.13183-31.54346,7.1045-11.21387,8.51075-23.894,8.71582-30.45459.07618-2.438-.48339-4.271-1.665-5.44775a5.12467,5.12467,0,0,0-3.42871-1.40333.42432.42432,0,0,1-.38476-.16015.50109.50109,0,0,1-.13086-.396,3.16317,3.16317,0,0,0-.74414-2.666c-1.48731-1.59864-4.62793-1.48731-4.65723-1.48828a.4853.4853,0,0,1-.40625-.18018.49848.49848,0,0,1-.10254-.43115,3.10059,3.10059,0,0,0-.46093-2.97949c-1.34864-1.37745-4.49512-.7461-4.52735-.73829a.50036.50036,0,0,1-.54883-.71386,1.19687,1.19687,0,0,0-.0332-.86524c-.1875-.48584-.74316-1.21142-2.334-1.90771-2.33594-1.02149-10.77832,8.91406-15.55469,15.41211a.50022.50022,0,0,1-.80664-.5918c2.14258-2.915,13.02637-17.37744,16.76172-15.73633a4.89448,4.89448,0,0,1,2.88476,2.51319,2.35339,2.35339,0,0,1,.14453.80224c1.165-.12988,3.44532-.18262,4.72657,1.12451a3.7035,3.7035,0,0,1,.83691,3.29834c1.1123.04834,3.43945.33106,4.80664,1.79785a3.99888,3.99888,0,0,1,1.0459,2.93116,5.993,5.993,0,0,1,3.60742,1.65771c1.39258,1.37988,2.05566,3.46582,1.9707,6.19971-.209,6.6626-1.63867,19.54394-8.87011,30.9585-12.84961,20.28564-21.25977,30.74365-25.71192,31.97216A7.339,7.339,0,0,1,233.49316,317.56055Z"/><path d="M238.08594 256.17334a.49975.49975 0 01-.38574-.81787l10.25781-12.4419a.49984.49984 0 11.77148.63575l-10.25781 12.44189A.49842.49842 0 01238.08594 256.17334zM243.5918 261.31543a.5.5 0 01-.39649-.80469l10.21778-13.30713a.5.5 0 01.793.60938l-10.21777 13.30713A.50017.50017 0 01243.5918 261.31543zM249.76953 267.96924a.494.494 0 01-.30859-.10694.50018.50018 0 01-.085-.70214L259.832 253.853a.50042.50042 0 01.78711.61816l-10.45605 13.30713A.50023.50023 0 01249.76953 267.96924zM434.48424 422.27332s-7.056-1.85982-20.376-8.33982-40.69364-36.11081-40.69364-36.11081 30.61364 26.03081 41.05364 29.63081 31.56959 8.56082 31.56959 8.56082l1.76931 3.31793a2 2 0 01-1.76477 2.94107zM188.03027 262.15625a3.47777 3.47777 0 01-1.12793-.18506 3.91469 3.91469 0 01-2.14257-1.96289.49963.49963 0 11.89062-.45312 2.92442 2.92442 0 001.57617 1.46972 3.18275 3.18275 0 003.543-1.47607c.50977-.97022-.06543-2.49805-1.30859-5.5874-.4502-1.1167-.78614-1.82471-1.083-2.44971a15.71355 15.71355 0 01-1.0791-2.74658c-.71094-2.45948-1.22559-4.23682-.1875-5.4668 1.00781-1.19531 3.25-1.36426 5.708-.43066a.49995.49995 0 11-.35547.93457c-2.02442-.76807-3.86817-.71192-4.58887.14062-.69238.82129-.24023 2.3833.38477 4.54443a14.82485 14.82485 0 001.0205 2.59522c.28809.606.64746 1.36035 1.1084 2.50537 1.29883 3.22656 2.01465 5.00391 1.26563 6.42676A4.27085 4.27085 0 01188.03027 262.15625zM184.83105 269.6084a4.4786 4.4786 0 01-2.75-.8252 5.38522 5.38522 0 01-1.80957-4.23779.47431.47431 0 01.52051-.47705.50158.50158 0 01.47949.52 4.44222 4.44222 0 001.41211 3.39648c1.10059.81739 2.80567.834 5.0752.04834a.5.5 0 11.32617.94532A10.09584 10.09584 0 01184.83105 269.6084zM174.31738 251.0083a.49987.49987 0 01-.45605-.70459 6.53988 6.53988 0 013.51855-3.24853 6.43512 6.43512 0 015.19922.6958.49977.49977 0 11-.46875.88281 5.49481 5.49481 0 00-4.39746-.63525 5.60842 5.60842 0 00-2.94043 2.7163A.49991.49991 0 01174.31738 251.0083z"/><circle cx="180.19" cy="253.784" r="1.574"/><circle cx="192.642" cy="249.636" r="1.574"/><path d="M331.77148,132.42285a.5066.5066,0,0,1-.126-.01611.50074.50074,0,0,1-.37012-.42041l-2.82227-22.08692L303.707,106.856a.50011.50011,0,0,1-.14258-.95264l75.59668-33.71143a.5.5,0,0,1,.67676.61963l-20.43457,59.15479a.49962.49962,0,0,1-.87207.13721l-13.2207-17.603-13.1377,17.72021A.49954.49954,0,0,1,331.77148,132.42285Zm13.53614-19.2583a.49766.49766,0,0,1,.39941.19971l13.05859,17.38623,19.751-57.17627L305.61621,106.0835l23.34473,2.87109a.50011.50011,0,0,1,.43457.43262l2.71484,21.23974,12.7959-17.26025a.5.5,0,0,1,.39941-.20215Z"/><polygon points="328.9 109.451 379.365 72.648 345.307 113.664 331.772 131.923 328.9 109.451"/><path d="M216.61405 312.85231s-6.27162-3.206-7.12257-13.58777c-2.15979 5.12549-8.435 7.41279-8.435 7.41279s7.45277 3.29609 15.556 6.17515zM297.76074 178.415a.49976.49976 0 01-.40527-.79248c.96484-1.33838 1.92676-2.71289 2.85742-4.085a.50028.50028 0 01.82813.56152c-.93653 1.37988-1.9043 2.76221-2.875 4.1084A.49729.49729 0 01297.76074 178.415zm5.61426-8.273a.49938.49938 0 01-.4209-.769c.8916-1.397 1.77637-2.82276 2.627-4.23828a.50026.50026 0 01.85743.51562c-.85645 1.42285-1.74512 2.85645-2.64258 4.26074A.4982.4982 0 01303.375 170.14209zm5.1582-8.56592a.50006.50006 0 01-.43457-.74707q1.2129-2.13428 2.40918-4.3667a.4996.4996 0 11.88086.47168q-1.20117 2.24415-2.4209 4.38916A.49855.49855 0 01308.5332 161.57617zM194.46484 236.5498a.5.5 0 01-.08105-.99316l4.93262-.81934a.49994.49994 0 01.16406.98633l-4.93262.81934A.47629.47629 0 01194.46484 236.5498zm9.86133-1.6582a.5001.5001 0 01-.085-.99267q2.46095-.42847 4.91406-.88721a.49989.49989 0 01.18555.98242q-2.4624.46289-4.92773.89014A.52246.52246 0 01204.32617 234.8916zm9.8252-1.85742a.50012.50012 0 01-.10059-.98975q2.43458-.5061 4.87012-1.07373a.5.5 0 11.22851.97364q-2.44921.57348-4.8955 1.07959A.52212.52212 0 01214.15137 233.03418zM49.28125 381.18262a.42027.42027 0 01-.043-.002.49908.49908 0 01-.45605-.54c.1416-1.68261.30664-3.3623.48925-4.99218a.50018.50018 0 11.99414.11133c-.18261 1.62109-.34667 3.2915-.4873 4.96484A.49942.49942 0 0149.28125 381.18262zm1.11816-9.94092a.511.511 0 01-.07129-.00488.4998.4998 0 01-.4248-.56543c.23535-1.66016.49609-3.32764.77539-4.95557a.49574.49574 0 01.57813-.4082.5008.5008 0 01.4082.57715c-.27832 1.61865-.53809 3.27636-.77149 4.92724A.4995.4995 0 0150.39941 371.2417zm1.69336-9.85791a.49186.49186 0 01-.09961-.00977.49982.49982 0 01-.3916-.58935c.333-1.64844.69239-3.29737 1.06934-4.90186a.49957.49957 0 11.97265.22852c-.373 1.59424-.73046 3.23291-1.06152 4.87158A.50006.50006 0 0152.09277 361.38379zm2.27539-9.73828a.51891.51891 0 01-.1289-.0166.501.501 0 01-.35449-.61182c.43457-1.63477.89453-3.25928 1.36621-4.82813a.49973.49973 0 11.957.28809c-.46778 1.55811-.92481 3.17236-1.35645 4.79688A.5.5 0 0154.36816 351.64551zm2.86914-9.58008a.50071.50071 0 01-.4746-.6582c.52539-1.57325 1.08593-3.165 1.665-4.73194a.49977.49977 0 11.9375.34668c-.57519 1.55713-1.13183 3.13867-1.65332 4.70166A.50125.50125 0 0157.2373 342.06543zM60.707 332.6875a.49109.49109 0 01-.18848-.03711.49972.49972 0 01-.27441-.65185c.63379-1.55567 1.29688-3.10792 1.96973-4.61377a.49964.49964 0 11.91211.4082c-.668 1.4956-1.32618 3.0376-1.95606 4.58349A.49955.49955 0 0160.707 332.6875zm4.07715-9.13037a.49974.49974 0 01-.44922-.71924c.72754-1.49268 1.49219-2.99756 2.27344-4.47217a.49954.49954 0 11.88281.46778c-.77539 1.46533-1.53516 2.96-2.25781 4.44287A.4988.4988 0 0164.78418 323.55713zm4.68164-8.83447a.5.5 0 01-.43359-.749c.8291-1.44336 1.69531-2.89258 2.57324-4.30615a.5.5 0 01.84961.52734c-.87207 1.4043-1.73242 2.84327-2.55567 4.27686A.49946.49946 0 0169.46582 314.72266zm5.27637-8.49121a.49314.49314 0 01-.27832-.085.499.499 0 01-.13672-.69336c.92383-1.37792 1.88769-2.76269 2.86621-4.11718a.50008.50008 0 11.81055.58594c-.97168 1.34472-1.92871 2.72021-2.84668 4.08789A.49948.49948 0 0174.74219 306.23145zm5.85547-8.103a.50032.50032 0 01-.39454-.80762l.36329-.46582c.584-.74414 1.50781-1.90918 2.80371-3.43408a.49986.49986 0 01.76172.64746c-1.28321 1.51123-2.2002 2.666-2.77735 3.40283l-.3623.46485A.49926.49926 0 0180.59766 298.12842zm6.46679-7.62988a.50026.50026 0 01-.36816-.83838c1.10644-1.20459 2.27051-2.42823 3.459-3.63575a.5.5 0 11.71289.70118c-1.18066 1.1997-2.33691 2.41455-3.43554 3.61132A.49838.49838 0 0187.06445 290.49854zm7.01367-7.12989a.49953.49953 0 01-.34472-.86181c1.19336-1.1377 2.43164-2.28321 3.68262-3.40479a.5.5 0 01.668.74414c-1.24316 1.11524-2.4746 2.25391-3.66113 3.38428A.4976.4976 0 0194.07812 283.36865zm7.44336-6.67822a.50022.50022 0 01-.32324-.88184c1.27246-1.07568 2.57715-2.14648 3.877-3.18261a.5.5 0 01.623.78222c-1.292 1.02979-2.58886 2.09424-3.85351 3.16407A.49982.49982 0 01101.52148 276.69043zm7.81641-6.23731a.5.5 0 01-.30078-.89941c1.32617-.99853 2.6875-1.99463 4.0459-2.96094a.5.5 0 01.58008.81446c-1.35157.96142-2.70508 1.95215-4.02442 2.94531A.49653.49653 0 01109.33789 270.45312zm8.14844-5.79541a.49982.49982 0 01-.27832-.915q1.16162-.78 2.36035-1.55957.92284-.59913 1.83887-1.1792a.5004.5004 0 01.53515.8457q-.9126.57569-1.8291 1.17236-1.19238.7749-2.34863 1.55078A.49313.49313 0 01117.48633 264.65771zm8.45019-5.34667a.50012.50012 0 01-.25586-.92969c1.44727-.86035 2.91016-1.70117 4.34766-2.49951a.50011.50011 0 11.48633.874c-1.42969.79346-2.88379 1.62988-4.32227 2.48486A.4983.4983 0 01125.93652 259.311zm8.74024-4.853a.5.5 0 01-.22949-.94434c1.47851-.76318 2.99121-1.51367 4.49414-2.23047a.49972.49972 0 11.42968.90235c-1.49316.7124-2.99511 1.458-4.46484 2.21679A.50309.50309 0 01134.67676 254.458z"/><rect width="56.137" height="6.404" x="86.529" y="352.437" fill="#fed44a"/><rect width="56.137" height="6.404" x="341.534" y="229.041" fill="#674cfb"/><rect width="56.137" height="6.404" x="143.676" y="104.679" fill="#fd6f41"/><path d="M294.93652 265.31982a4.59253 4.59253 0 114.59278-4.59228A4.59786 4.59786 0 01294.93652 265.31982zm0-8.185a3.59253 3.59253 0 103.59278 3.59277A3.59666 3.59666 0 00294.93652 257.13477zM388.81934 183.5625a4.59229 4.59229 0 114.59277-4.59229A4.59787 4.59787 0 01388.81934 183.5625zm0-8.18457a3.59229 3.59229 0 103.59277 3.59228A3.59625 3.59625 0 00388.81934 175.37793z"/><polygon fill="#fd6f41" points="88.428 229.442 81.108 227.442 86.428 221.122 88.428 229.442"/><polygon fill="#fed44a" points="462.719 255.765 455.399 253.765 460.719 247.445 462.719 255.765"/><polygon fill="#fed44a" points="208.773 187.223 201.453 185.223 206.773 178.903 208.773 187.223"/><polygon fill="#674cfb" points="418.325 127.185 411.005 125.185 416.325 118.865 418.325 127.185"/><polygon fill="#2ca68f" points="239.087 104.543 231.767 102.543 237.087 96.223 239.087 104.543"/></svg>